<?xml version="1.0" encoding="UTF-8" standalone="no"?>
<!DOCTYPE svg PUBLIC "-//W3C//DTD SVG 1.1//EN" "http://www.w3.org/Graphics/SVG/1.1/DTD/svg11.dtd">
<svg width="100%" height="100%" viewBox="0 0 6173 6157" version="1.1" xmlns="http://www.w3.org/2000/svg" xmlns:xlink="http://www.w3.org/1999/xlink" xml:space="preserve" xmlns:serif="http://www.serif.com/" style="fill-rule:evenodd;clip-rule:evenodd;stroke-linecap:round;stroke-linejoin:round;stroke-miterlimit:1.5;">
    <g transform="matrix(1,0,0,1,0,-6558.17)">
        <g id="LysIngenBakgrunn" transform="matrix(0.213984,0,0,0.329816,591.879,7533.76)">
            <rect x="-2766" y="-2958" width="28848" height="18668" style="fill:none;"/>
            <g id="sirkel" transform="matrix(19.4719,0,0,12.6333,-2504.3,-2800.34)">
                <path d="M718.856,5.731C668.033,5.731 621.012,12.738 577.907,22.917C535.164,33.024 495.869,46.997 460.27,63.795C352.272,114.731 267.505,188.244 203.202,281.511C182.214,311.951 162.801,346.589 146.672,383.495C114.779,456.46 92.814,541.856 92.814,646.674C92.814,697.319 100.281,744.501 110.38,787.235C120.542,830.204 134.378,868.878 151.257,904.88C201.41,1011.85 275.618,1098.76 368.594,1162.32C399.736,1183.61 433.535,1202.66 470.578,1218.86C544.221,1251.04 628.552,1272.71 733.749,1272.71C833.239,1272.71 920.677,1247.29 992.351,1214.65C1065.32,1181.43 1125.63,1135.99 1177.99,1083.64C1230.86,1030.76 1273.73,968.287 1306.33,895.331C1339.12,821.914 1360.75,736.752 1360.18,632.16C1359.64,531.976 1334.91,445.692 1302.12,373.566C1268.76,300.158 1224.58,241.4 1171.11,187.93C1118.56,135.379 1056.61,92.419 982.793,59.589C929.218,35.76 866.529,16.782 795.631,9.17C772.043,6.635 743.879,4.577 719.622,5.731C719.372,5.748 719.114,5.731 718.856,5.731ZM710.073,0L742.919,0C743,0.307 743.242,0.444 743.686,0.388C859.11,3.302 954.363,30.505 1035.89,69.139C1158.62,127.299 1253.66,211.444 1327.71,318.562C1352.33,354.169 1374.39,393.392 1392.27,434.681C1429.07,519.69 1453.01,616.169 1453,735.283C1453,793.483 1444.66,846.954 1433.14,895.71C1398.83,1040.85 1327.19,1153.31 1237.95,1242.53C1177.66,1302.82 1107.11,1352.01 1024.05,1389.59C941.399,1426.99 843.111,1453 726.113,1453C609.13,1453 511.206,1426.64 428.562,1389.59C345.338,1352.29 274.98,1302.48 214.657,1242.15C155.092,1182.59 103.615,1112.76 66.079,1029.78C47.44,988.597 31.175,944.377 19.858,895.331C8.557,846.356 0,793.072 0,734.524C0,616.08 23.748,518.955 61.107,434.681C98.037,351.392 146.834,278.669 206.641,218.87C267.11,158.401 335.554,107.288 417.487,68.759C499.186,30.335 594.535,3.52 710.073,0Z" style="fill:rgb(35,31,32);"/>
            </g>
            <g id="Telefon" transform="matrix(4.21453,0,0,2.77799,-1124.48,-1889.44)">
                <path id="knapp" d="M4496.17,1132.5C4496.17,727.67 4167.5,399 3762.67,399L2295.67,399C1890.84,399 1562.17,727.67 1562.17,1132.5L1562.17,4189.5C1562.17,4594.33 1890.84,4923 2295.67,4923L3762.67,4923C4167.5,4923 4496.17,4594.33 4496.17,4189.5L4496.17,1132.5ZM3029.17,4416C3140.65,4416 3231.17,4506.51 3231.17,4618C3231.17,4729.49 3140.65,4820 3029.17,4820C2917.68,4820 2827.17,4729.49 2827.17,4618C2827.17,4506.51 2917.68,4416 3029.17,4416ZM4265.85,1246.38C4265.85,904.535 3988.31,627 3646.47,627L2407.7,627C2065.86,627 1788.32,904.535 1788.32,1246.38L1788.32,3698.62C1788.32,4040.47 2065.86,4318 2407.7,4318L3646.47,4318C3988.31,4318 4265.85,4040.47 4265.85,3698.62L4265.85,1246.38Z" style="fill:rgb(35,31,32);stroke:rgb(35,31,32);stroke-opacity:0;stroke-width:1.1px;"/>
                <g id="tegn" transform="matrix(1,0,0,1,0,149)">
                    <g transform="matrix(33.0377,0,0,33.0377,-45.6426,-929.92)">
                        <path d="M82.545,62.592C82.516,63.596 82.605,64.72 82.501,65.651C81.949,66.093 81.277,66.376 80.656,66.685C77.546,68.233 74.347,69.853 71.163,71.409C69.895,72.03 68.664,72.748 67.339,73.254C67.369,72.175 67.279,70.974 67.384,69.97C67.799,69.641 68.309,69.394 68.779,69.159C72.128,67.491 75.648,65.829 78.991,64.12C75.181,62.127 71.199,60.305 67.339,58.362L67.339,54.943C72.487,57.413 77.52,59.998 82.545,62.592Z" style="fill:rgb(35,31,32);"/>
                    </g>
                    <g transform="matrix(25.2795,0,0,25.2795,611.399,-430.965)">
                        <path d="M85.785,75.998L105.536,75.998C105.639,77.065 105.552,78.322 105.582,79.463C99.057,79.538 92.219,79.538 85.695,79.463L85.695,76.134C85.693,76.056 85.729,76.016 85.785,75.998Z" style="fill:rgb(35,31,32);"/>
                    </g>
                </g>
            </g>
        </g>
    </g>
</svg>
